<svg width="24" height="24" viewBox="0 0 24 24" fill="none" xmlns="http://www.w3.org/2000/svg">
<path d="M12.0031 8.40626C10.0156 8.40626 8.41252 10.0094 8.41252 11.9969C8.41252 13.9844 10.0156 15.5875 12.0031 15.5875C13.9906 15.5875 15.5938 13.9844 15.5938 11.9969C15.5938 10.0094 13.9906 8.40626 12.0031 8.40626ZM12.0031 14.3313C10.7188 14.3313 9.66877 13.2844 9.66877 11.9969C9.66877 10.7094 10.7156 9.66251 12.0031 9.66251C13.2906 9.66251 14.3375 10.7094 14.3375 11.9969C14.3375 13.2844 13.2875 14.3313 12.0031 14.3313ZM16.5781 8.25938C16.5781 8.72501 16.2031 9.09688 15.7406 9.09688C15.275 9.09688 14.9031 8.72188 14.9031 8.25938C14.9031 7.79688 15.2781 7.42188 15.7406 7.42188C16.2031 7.42188 16.5781 7.79688 16.5781 8.25938ZM18.9563 9.10938C18.9031 7.98751 18.6469 6.99376 17.825 6.17501C17.0063 5.35626 16.0125 5.10001 14.8906 5.04376C13.7344 4.97813 10.2688 4.97813 9.11252 5.04376C7.99377 5.09688 7.00002 5.35313 6.17815 6.17188C5.35627 6.99063 5.10315 7.98438 5.0469 9.10626C4.98127 10.2625 4.98127 13.7281 5.0469 14.8844C5.10002 16.0063 5.35627 17 6.17815 17.8188C7.00002 18.6375 7.99065 18.8938 9.11252 18.95C10.2688 19.0156 13.7344 19.0156 14.8906 18.95C16.0125 18.8969 17.0063 18.6406 17.825 17.8188C18.6438 17 18.9 16.0063 18.9563 14.8844C19.0219 13.7281 19.0219 10.2656 18.9563 9.10938ZM17.4625 16.125C17.2188 16.7375 16.7469 17.2094 16.1313 17.4563C15.2094 17.8219 13.0219 17.7375 12.0031 17.7375C10.9844 17.7375 8.79377 17.8188 7.87502 17.4563C7.26252 17.2125 6.79065 16.7406 6.54377 16.125C6.17815 15.2031 6.26252 13.0156 6.26252 11.9969C6.26252 10.9781 6.18127 8.78751 6.54377 7.86876C6.78752 7.25626 7.2594 6.78438 7.87502 6.53751C8.7969 6.17188 10.9844 6.25626 12.0031 6.25626C13.0219 6.25626 15.2125 6.17501 16.1313 6.53751C16.7438 6.78126 17.2156 7.25313 17.4625 7.86876C17.8281 8.79063 17.7438 10.9781 17.7438 11.9969C17.7438 13.0156 17.8281 15.2063 17.4625 16.125Z" fill="white" fill-opacity="0.7"/>
</svg>
