<svg width="24" height="24" viewBox="0 0 24 24" fill="none" xmlns="http://www.w3.org/2000/svg">
<path d="M18.6667 6.31374V17.6863C18.6667 17.9463 18.5634 18.1957 18.3796 18.3795C18.1957 18.5634 17.9463 18.6667 17.6863 18.6667H6.31377C6.05375 18.6667 5.80438 18.5634 5.62052 18.3795C5.43667 18.1957 5.33337 17.9463 5.33337 17.6863V6.31374C5.33337 6.05372 5.43667 5.80435 5.62052 5.62049C5.80438 5.43663 6.05375 5.33334 6.31377 5.33334H17.6863C17.9463 5.33334 18.1957 5.43663 18.3796 5.62049C18.5634 5.80435 18.6667 6.05372 18.6667 6.31374ZM9.25494 10.4314H7.29416V16.7059H9.25494V10.4314ZM9.43141 8.27452C9.43245 8.1262 9.40426 7.97913 9.34845 7.84171C9.29265 7.70429 9.21032 7.5792 9.10617 7.4736C9.00202 7.368 8.87809 7.28394 8.74146 7.22623C8.60483 7.16852 8.45816 7.13829 8.30984 7.13727H8.27455C7.97293 7.13727 7.68367 7.25708 7.47039 7.47036C7.25711 7.68364 7.1373 7.9729 7.1373 8.27452C7.1373 8.57614 7.25711 8.8654 7.47039 9.07868C7.68367 9.29196 7.97293 9.41177 8.27455 9.41177C8.42288 9.41542 8.57047 9.38981 8.7089 9.3364C8.84732 9.28299 8.97387 9.20282 9.0813 9.10049C9.18873 8.99815 9.27495 8.87565 9.33502 8.73999C9.3951 8.60432 9.42785 8.45814 9.43141 8.30981V8.27452ZM16.7059 12.8941C16.7059 11.0079 15.5059 10.2745 14.3138 10.2745C13.9234 10.255 13.5348 10.3381 13.1866 10.5156C12.8384 10.6932 12.5429 10.9589 12.3295 11.2863H12.2746V10.4314H10.4314V16.7059H12.3922V13.3686C12.3639 13.0268 12.4715 12.6877 12.6918 12.4248C12.9121 12.1619 13.2272 11.9966 13.5687 11.9647H13.6432C14.2667 11.9647 14.7295 12.3569 14.7295 13.3451V16.7059H16.6902L16.7059 12.8941Z" fill="white" fill-opacity="0.7"/>
</svg>
