<svg width="24" height="24" viewBox="0 0 24 24" fill="none" xmlns="http://www.w3.org/2000/svg">
<path d="M19.2682 8.33563C19.0937 7.67868 18.5797 7.1613 17.927 6.98571C16.7439 6.66666 12 6.66666 12 6.66666C12 6.66666 7.2561 6.66666 6.07302 6.98571C5.42032 7.16132 4.90627 7.67868 4.73179 8.33563C4.41479 9.52638 4.41479 12.0108 4.41479 12.0108C4.41479 12.0108 4.41479 14.4952 4.73179 15.6859C4.90627 16.3429 5.42032 16.8387 6.07302 17.0143C7.2561 17.3333 12 17.3333 12 17.3333C12 17.3333 16.7439 17.3333 17.927 17.0143C18.5797 16.8387 19.0937 16.3429 19.2682 15.6859C19.5852 14.4952 19.5852 12.0108 19.5852 12.0108C19.5852 12.0108 19.5852 9.52638 19.2682 8.33563ZM10.4485 14.2664V9.75513L14.4134 12.0108L10.4485 14.2664Z" fill="white" fill-opacity="0.7"/>
</svg>
