<svg width="225" height="41" viewBox="0 0 225 41" fill="none" xmlns="http://www.w3.org/2000/svg">
<rect y="3.01758" width="48.5526" height="37.9826" rx="8" fill="#AB5D00"/>
<rect x="1" y="4.01758" width="46.5526" height="35.9826" rx="7" stroke="#AB5D00" stroke-opacity="0.02" stroke-width="2"/>
<path d="M36.4196 22.2474C36.4196 28.9981 30.9795 34.4654 24.2753 34.4654C17.5711 34.4654 12.131 28.9981 12.131 22.2474C12.131 15.4967 17.5711 10.0294 24.2753 10.0294C30.9795 10.0294 36.4196 15.4967 36.4196 22.2474Z" stroke="white" stroke-width="1.06667"/>
<path d="M33.9921 22.2471C33.9921 27.6492 29.6388 32.0233 24.2754 32.0233C18.9119 32.0233 14.5587 27.6492 14.5587 22.2471C14.5587 16.8449 18.9119 12.4708 24.2754 12.4708C29.6388 12.4708 33.9921 16.8449 33.9921 22.2471Z" fill="#AB5D00" stroke="white" stroke-width="1.06667"/>
<mask id="mask0_1_185" style="mask-type:alpha" maskUnits="userSpaceOnUse" x="14" y="11" width="21" height="22">
<path d="M33.994 22.2471C33.994 27.6492 29.6408 32.0233 24.2773 32.0233C18.9139 32.0233 14.5607 27.6492 14.5607 22.2471C14.5607 16.8449 18.9139 12.4708 24.2773 12.4708C29.6408 12.4708 33.994 16.8449 33.994 22.2471Z" fill="#C4C4C4" stroke="white" stroke-width="1.06667"/>
</mask>
<g mask="url(#mask0_1_185)">
<ellipse cx="28.862" cy="17.274" rx="3.50658" ry="3.52695" fill="white"/>
<ellipse cx="24.2784" cy="22.2471" rx="1.34868" ry="1.35652" fill="white"/>
</g>
<path d="M14.701 0H32.6385L34.5266 3.25565H12.4082L14.701 0Z" fill="#AB5D00"/>
<ellipse cx="41.3487" cy="9.35652" rx="1.34868" ry="1.35652" fill="white"/>
<path d="M70.9936 28.28C70.9936 28.9627 71.0789 29.464 71.2496 29.784C71.4416 30.0827 71.7936 30.296 72.3056 30.424C72.8389 30.552 73.6709 30.616 74.8016 30.616C74.8656 30.616 74.8976 30.68 74.8976 30.808C74.8976 30.936 74.8656 31 74.8016 31C73.9269 31 73.2443 30.9893 72.7536 30.968L69.9696 30.936L67.8256 30.968C67.4203 30.9893 66.8763 31 66.1936 31C66.1509 31 66.1296 30.936 66.1296 30.808C66.1296 30.68 66.1509 30.616 66.1936 30.616C67.0043 30.616 67.5909 30.5627 67.9536 30.456C68.3376 30.3493 68.5936 30.1467 68.7216 29.848C68.8496 29.528 68.9136 29.048 68.9136 28.408V13.592C68.9136 12.952 68.8496 12.4827 68.7216 12.184C68.5936 11.8853 68.3376 11.6827 67.9536 11.576C67.5909 11.448 67.0043 11.384 66.1936 11.384C66.1509 11.384 66.1296 11.32 66.1296 11.192C66.1296 11.064 66.1509 11 66.1936 11L67.7936 11.032C68.6896 11.0747 69.4043 11.096 69.9376 11.096C70.4709 11.096 71.0683 11.064 71.7296 11C71.9856 11 72.3909 10.9893 72.9456 10.968C73.5003 10.9253 73.9803 10.904 74.3856 10.904C76.3483 10.904 77.9163 11.3413 79.0896 12.216C80.2843 13.0907 80.8816 14.424 80.8816 16.216C80.8816 17.624 80.5296 18.808 79.8256 19.768C79.1429 20.728 78.2576 21.4427 77.1696 21.912C76.0816 22.3813 74.9616 22.616 73.8096 22.616C73.1909 22.616 72.6789 22.5627 72.2736 22.456C72.2096 22.456 72.1776 22.4027 72.1776 22.296C72.1776 22.232 72.1883 22.168 72.2096 22.104C72.2523 22.04 72.2949 22.0187 72.3376 22.04C72.6789 22.1253 73.0629 22.168 73.4896 22.168C74.8976 22.168 76.0816 21.7093 77.0416 20.792C78.0229 19.8747 78.5136 18.552 78.5136 16.824C78.5136 15.1387 78.0549 13.816 77.1376 12.856C76.2203 11.8747 75.0469 11.384 73.6176 11.384C72.8496 11.384 72.2949 11.4267 71.9536 11.512C71.6123 11.5973 71.3669 11.8 71.2176 12.12C71.0683 12.4187 70.9936 12.9307 70.9936 13.656V28.28ZM97.4886 30.616C97.5526 30.616 97.5846 30.68 97.5846 30.808C97.5846 30.936 97.5526 31 97.4886 31C96.9979 31 96.6033 30.9893 96.3046 30.968L94.5766 30.936L92.8486 30.968C92.5499 30.9893 92.1553 31 91.6646 31C91.6006 31 91.5686 30.936 91.5686 30.808C91.5686 30.68 91.6006 30.616 91.6646 30.616C92.2406 30.616 92.6673 30.5627 92.9446 30.456C93.2219 30.328 93.4139 30.1147 93.5206 29.816C93.6273 29.496 93.6806 29.0267 93.6806 28.408V23.32C93.6806 22.0613 93.4353 21.1333 92.9446 20.536C92.4753 19.9173 91.7393 19.608 90.7366 19.608C90.0753 19.608 89.4033 19.7893 88.7206 20.152C88.0379 20.4933 87.4193 20.9733 86.8646 21.592V28.408C86.8646 29.0267 86.9179 29.496 87.0246 29.816C87.1313 30.1147 87.3233 30.328 87.6006 30.456C87.8779 30.5627 88.3046 30.616 88.8806 30.616C88.9446 30.616 88.9766 30.68 88.9766 30.808C88.9766 30.936 88.9446 31 88.8806 31C88.3899 31 87.9953 30.9893 87.6966 30.968L85.9686 30.936L84.2406 30.968C83.9419 30.9893 83.5473 31 83.0566 31C82.9926 31 82.9606 30.936 82.9606 30.808C82.9606 30.68 82.9926 30.616 83.0566 30.616C83.6326 30.616 84.0593 30.5627 84.3366 30.456C84.6139 30.328 84.8059 30.1147 84.9126 29.816C85.0193 29.496 85.0726 29.0267 85.0726 28.408V11.864C85.0726 11.096 84.9979 10.5413 84.8486 10.2C84.6993 9.85867 84.4326 9.688 84.0486 9.688C83.7286 9.688 83.2379 9.83733 82.5766 10.136H82.5126C82.4486 10.136 82.3953 10.0827 82.3526 9.976C82.3099 9.86933 82.3313 9.80533 82.4166 9.784L86.4806 7.8H86.5766C86.6619 7.8 86.7259 7.832 86.7686 7.896C86.8326 7.93867 86.8646 7.992 86.8646 8.056V21.048C87.6753 20.1093 88.4753 19.4267 89.2646 19C90.0753 18.552 90.9179 18.328 91.7926 18.328C92.9659 18.328 93.8726 18.6587 94.5126 19.32C95.1526 19.9813 95.4726 20.9413 95.4726 22.2V28.408C95.4726 29.0267 95.5259 29.496 95.6326 29.816C95.7393 30.1147 95.9313 30.328 96.2086 30.456C96.4859 30.5627 96.9126 30.616 97.4886 30.616ZM105.585 31.416C104.348 31.416 103.249 31.1173 102.289 30.52C101.351 29.9013 100.625 29.08 100.113 28.056C99.6014 27.0107 99.3454 25.88 99.3454 24.664C99.3454 23.2773 99.676 22.104 100.337 21.144C101.02 20.1627 101.884 19.4373 102.929 18.968C103.996 18.4773 105.073 18.232 106.161 18.232C107.42 18.232 108.519 18.5413 109.457 19.16C110.396 19.7787 111.111 20.6 111.601 21.624C112.113 22.6267 112.369 23.6933 112.369 24.824C112.369 26.1467 112.06 27.3093 111.441 28.312C110.823 29.2933 109.991 30.0613 108.945 30.616C107.921 31.1493 106.801 31.416 105.585 31.416ZM106.513 30.808C107.687 30.808 108.593 30.392 109.233 29.56C109.873 28.728 110.193 27.448 110.193 25.72C110.193 24.3973 109.969 23.2133 109.521 22.168C109.095 21.1227 108.497 20.312 107.729 19.736C106.961 19.1387 106.087 18.84 105.105 18.84C103.953 18.84 103.057 19.256 102.417 20.088C101.799 20.92 101.489 22.1147 101.489 23.672C101.489 24.9733 101.703 26.168 102.129 27.256C102.556 28.344 103.153 29.208 103.921 29.848C104.689 30.488 105.553 30.808 106.513 30.808ZM123.458 29.336C123.543 29.336 123.607 29.3893 123.65 29.496C123.693 29.5813 123.682 29.6453 123.618 29.688C122.829 30.3067 122.114 30.744 121.474 31C120.855 31.256 120.205 31.384 119.522 31.384C118.626 31.384 117.89 31.1813 117.314 30.776C116.738 30.3707 116.45 29.6987 116.45 28.76V21.24C116.45 20.6853 116.407 20.2907 116.322 20.056C116.258 19.8213 116.119 19.672 115.906 19.608C115.693 19.5227 115.33 19.48 114.818 19.48C114.733 19.48 114.69 19.416 114.69 19.288C114.69 19.1387 114.733 19.064 114.818 19.064C115.671 19.0427 116.365 18.8187 116.898 18.392C117.431 17.944 117.741 17.3573 117.826 16.632C117.826 16.568 117.911 16.536 118.082 16.536C118.231 16.536 118.306 16.568 118.306 16.632V19C119.373 18.9787 120.855 18.872 122.754 18.68C122.797 18.68 122.839 18.7653 122.882 18.936C122.946 19.0853 122.978 19.256 122.978 19.448C122.978 19.6187 122.935 19.8 122.85 19.992C122.786 20.1627 122.711 20.2373 122.626 20.216C121.453 19.9173 120.013 19.7467 118.306 19.704V27.672C118.306 28.5467 118.519 29.1973 118.946 29.624C119.394 30.0507 120.023 30.264 120.834 30.264C121.815 30.264 122.669 29.9653 123.394 29.368L123.458 29.336ZM131.71 31.416C130.473 31.416 129.374 31.1173 128.414 30.52C127.476 29.9013 126.75 29.08 126.238 28.056C125.726 27.0107 125.47 25.88 125.47 24.664C125.47 23.2773 125.801 22.104 126.462 21.144C127.145 20.1627 128.009 19.4373 129.054 18.968C130.121 18.4773 131.198 18.232 132.286 18.232C133.545 18.232 134.644 18.5413 135.582 19.16C136.521 19.7787 137.236 20.6 137.726 21.624C138.238 22.6267 138.494 23.6933 138.494 24.824C138.494 26.1467 138.185 27.3093 137.566 28.312C136.948 29.2933 136.116 30.0613 135.07 30.616C134.046 31.1493 132.926 31.416 131.71 31.416ZM132.638 30.808C133.812 30.808 134.718 30.392 135.358 29.56C135.998 28.728 136.318 27.448 136.318 25.72C136.318 24.3973 136.094 23.2133 135.646 22.168C135.22 21.1227 134.622 20.312 133.854 19.736C133.086 19.1387 132.212 18.84 131.23 18.84C130.078 18.84 129.182 19.256 128.542 20.088C127.924 20.92 127.614 22.1147 127.614 23.672C127.614 24.9733 127.828 26.168 128.254 27.256C128.681 28.344 129.278 29.208 130.046 29.848C130.814 30.488 131.678 30.808 132.638 30.808ZM147.375 30.072C148.655 30.264 149.668 30.4667 150.415 30.68C151.162 30.872 151.802 31.2133 152.335 31.704C152.868 32.216 153.135 32.92 153.135 33.816C153.135 34.776 152.772 35.736 152.047 36.696C151.322 37.6773 150.34 38.4773 149.103 39.096C147.887 39.7147 146.575 40.024 145.167 40.024C143.652 40.024 142.426 39.6613 141.487 38.936C140.57 38.2107 140.111 37.2827 140.111 36.152C140.111 34.4667 141.327 32.8133 143.759 31.192C142.308 30.7653 141.583 30.04 141.583 29.016C141.583 28.4187 141.786 27.8427 142.191 27.288C142.618 26.712 143.183 26.1893 143.887 25.72C143.055 25.4213 142.415 24.9627 141.967 24.344C141.519 23.704 141.295 22.9893 141.295 22.2C141.295 21.0907 141.764 20.184 142.703 19.48C143.642 18.776 144.826 18.424 146.255 18.424C147.663 18.424 148.751 18.7547 149.519 19.416C150.65 18.7333 151.791 18.392 152.943 18.392C153.007 18.392 153.05 18.4667 153.071 18.616C153.114 18.7653 153.135 18.9253 153.135 19.096C153.135 19.352 153.103 19.608 153.039 19.864C152.975 20.12 152.9 20.2267 152.815 20.184C152.751 20.1627 152.516 20.0773 152.111 19.928C151.727 19.7787 151.258 19.704 150.703 19.704C150.468 19.704 150.202 19.7253 149.903 19.768C150.458 20.408 150.735 21.1653 150.735 22.04C150.735 22.7653 150.532 23.4373 150.127 24.056C149.722 24.6533 149.156 25.1333 148.431 25.496C147.706 25.8587 146.863 26.04 145.903 26.04C145.284 26.04 144.74 25.976 144.271 25.848C143.908 26.104 143.62 26.4133 143.407 26.776C143.194 27.1173 143.087 27.4907 143.087 27.896C143.087 28.5573 143.386 29.0267 143.983 29.304C144.602 29.56 145.519 29.784 146.735 29.976L147.375 30.072ZM145.455 18.904C144.815 18.904 144.292 19.1173 143.887 19.544C143.503 19.9707 143.311 20.632 143.311 21.528C143.311 22.7653 143.631 23.7573 144.271 24.504C144.932 25.2293 145.7 25.592 146.575 25.592C147.215 25.592 147.738 25.3573 148.143 24.888C148.548 24.3973 148.751 23.6613 148.751 22.68C148.751 21.5707 148.42 20.664 147.759 19.96C147.119 19.256 146.351 18.904 145.455 18.904ZM146.447 39.064C147.492 39.064 148.388 38.872 149.135 38.488C149.903 38.104 150.479 37.592 150.863 36.952C151.268 36.3333 151.471 35.6613 151.471 34.936C151.471 34.104 151.204 33.464 150.671 33.016C150.138 32.568 149.508 32.2587 148.783 32.088C148.079 31.9173 147.076 31.7467 145.775 31.576C145.114 31.4907 144.655 31.416 144.399 31.352C143.631 31.8427 143.034 32.376 142.607 32.952C142.202 33.528 141.999 34.2533 141.999 35.128C141.999 36.3227 142.394 37.272 143.183 37.976C143.994 38.7013 145.082 39.064 146.447 39.064ZM162.275 18.36C162.744 18.36 163.192 18.488 163.619 18.744C164.045 19 164.259 19.3093 164.259 19.672C164.259 19.9493 164.163 20.184 163.971 20.376C163.8 20.568 163.544 20.664 163.203 20.664C163.011 20.664 162.84 20.632 162.691 20.568C162.563 20.4827 162.403 20.3653 162.211 20.216C162.019 20.0453 161.837 19.9173 161.667 19.832C161.496 19.7467 161.293 19.704 161.059 19.704C160.781 19.704 160.483 19.8213 160.163 20.056C159.864 20.2693 159.384 20.76 158.723 21.528V28.408C158.723 29.048 158.797 29.5173 158.947 29.816C159.117 30.1147 159.416 30.328 159.843 30.456C160.269 30.5627 160.931 30.616 161.827 30.616C161.912 30.616 161.955 30.68 161.955 30.808C161.955 30.936 161.912 31 161.827 31C161.144 31 160.6 30.9893 160.195 30.968L157.827 30.936L156.067 30.968C155.789 30.9893 155.405 31 154.915 31C154.851 31 154.819 30.936 154.819 30.808C154.819 30.68 154.851 30.616 154.915 30.616C155.491 30.616 155.917 30.5627 156.195 30.456C156.472 30.328 156.653 30.1147 156.739 29.816C156.845 29.5173 156.899 29.048 156.899 28.408V22.072C156.899 21.3467 156.813 20.824 156.643 20.504C156.472 20.184 156.184 20.024 155.779 20.024C155.437 20.024 154.861 20.184 154.051 20.504H153.987C153.901 20.504 153.837 20.4613 153.795 20.376C153.773 20.2693 153.805 20.1947 153.891 20.152L157.603 18.392C157.645 18.3707 157.709 18.36 157.795 18.36C157.987 18.36 158.189 18.6053 158.403 19.096C158.616 19.5867 158.723 20.216 158.723 20.984V21.016C159.597 19.992 160.291 19.2987 160.803 18.936C161.315 18.552 161.805 18.36 162.275 18.36ZM177.911 29.272C177.996 29.272 178.05 29.3253 178.071 29.432C178.092 29.5173 178.06 29.5813 177.975 29.624L174.679 31.192C174.594 31.2347 174.508 31.256 174.423 31.256C174.146 31.256 173.9 31.0747 173.687 30.712C173.474 30.3493 173.335 29.848 173.271 29.208L171.287 30.264C170.626 30.6053 170.082 30.8507 169.655 31C169.228 31.1493 168.812 31.224 168.407 31.224C167.746 31.224 167.234 31.0533 166.871 30.712C166.53 30.3493 166.359 29.9013 166.359 29.368C166.359 28.792 166.572 28.3333 166.999 27.992C167.447 27.6293 168.236 27.256 169.367 26.872L173.239 25.496V22.84C173.239 21.432 173.058 20.4507 172.695 19.896C172.332 19.32 171.831 19.032 171.191 19.032C170.466 19.032 169.9 19.288 169.495 19.8C169.09 20.312 168.844 20.9307 168.759 21.656C168.674 22.4667 168.279 22.872 167.575 22.872C167.234 22.872 166.967 22.7867 166.775 22.616C166.583 22.4453 166.487 22.2107 166.487 21.912C166.487 21.4213 166.807 20.8987 167.447 20.344C168.087 19.7893 168.855 19.32 169.751 18.936C170.668 18.552 171.49 18.36 172.215 18.36C173.068 18.36 173.751 18.6587 174.263 19.256C174.775 19.832 175.031 20.7067 175.031 21.88V27.544C175.031 28.2907 175.127 28.8347 175.319 29.176C175.511 29.5173 175.831 29.688 176.279 29.688C176.684 29.688 177.207 29.5493 177.847 29.272H177.911ZM173.239 28.76V28.568V25.88L169.943 27.128C169.452 27.32 169.1 27.5333 168.887 27.768C168.695 28.0027 168.599 28.3013 168.599 28.664C168.599 29.112 168.727 29.464 168.983 29.72C169.239 29.9547 169.57 30.072 169.975 30.072C170.38 30.072 170.818 29.9653 171.287 29.752L173.239 28.76ZM188.245 18.232C189.12 18.232 189.93 18.4667 190.677 18.936C191.424 19.4053 192.021 20.088 192.469 20.984C192.917 21.88 193.141 22.9253 193.141 24.12C193.141 25.72 192.778 27.0747 192.053 28.184C191.328 29.272 190.432 30.0827 189.365 30.616C188.32 31.1493 187.285 31.416 186.261 31.416C185.6 31.416 185.002 31.352 184.469 31.224C183.957 31.096 183.424 30.8827 182.869 30.584V37.208C182.869 37.848 182.944 38.3173 183.093 38.616C183.264 38.9147 183.573 39.1173 184.021 39.224C184.469 39.352 185.152 39.416 186.069 39.416C186.112 39.416 186.133 39.48 186.133 39.608C186.133 39.736 186.112 39.8 186.069 39.8C185.344 39.8 184.768 39.7893 184.341 39.768L182.005 39.736L180.245 39.768C179.946 39.7893 179.552 39.8 179.061 39.8C178.997 39.8 178.965 39.736 178.965 39.608C178.965 39.48 178.997 39.416 179.061 39.416C179.637 39.416 180.064 39.352 180.341 39.224C180.618 39.1173 180.81 38.9147 180.917 38.616C181.024 38.3173 181.077 37.848 181.077 37.208V22.168C181.077 21.4 180.992 20.856 180.821 20.536C180.65 20.1947 180.352 20.024 179.925 20.024C179.456 20.024 178.89 20.1733 178.229 20.472L178.165 20.504C178.08 20.504 178.026 20.4507 178.005 20.344C177.962 20.2373 177.973 20.1627 178.037 20.12L181.589 18.424C181.632 18.4027 181.706 18.392 181.813 18.392C182.112 18.392 182.357 18.616 182.549 19.064C182.741 19.512 182.848 20.152 182.869 20.984C184.682 19.1493 186.474 18.232 188.245 18.232ZM187.221 30.744C188.352 30.744 189.28 30.2533 190.005 29.272C190.73 28.2693 191.093 26.8827 191.093 25.112C191.093 23.32 190.698 21.9333 189.909 20.952C189.12 19.9493 188.117 19.448 186.901 19.448C186.154 19.448 185.461 19.6293 184.821 19.992C184.181 20.3547 183.53 20.8667 182.869 21.528V28.728C183.445 29.3893 184.074 29.8907 184.757 30.232C185.44 30.5733 186.261 30.744 187.221 30.744ZM209.645 30.616C209.709 30.616 209.741 30.68 209.741 30.808C209.741 30.936 209.709 31 209.645 31C209.154 31 208.76 30.9893 208.461 30.968L206.733 30.936L205.005 30.968C204.706 30.9893 204.312 31 203.821 31C203.757 31 203.725 30.936 203.725 30.808C203.725 30.68 203.757 30.616 203.821 30.616C204.397 30.616 204.824 30.5627 205.101 30.456C205.378 30.328 205.57 30.1147 205.677 29.816C205.784 29.496 205.837 29.0267 205.837 28.408V23.32C205.837 22.0613 205.592 21.1333 205.101 20.536C204.632 19.9173 203.896 19.608 202.893 19.608C202.232 19.608 201.56 19.7893 200.877 20.152C200.194 20.4933 199.576 20.9733 199.021 21.592V28.408C199.021 29.0267 199.074 29.496 199.181 29.816C199.288 30.1147 199.48 30.328 199.757 30.456C200.034 30.5627 200.461 30.616 201.037 30.616C201.101 30.616 201.133 30.68 201.133 30.808C201.133 30.936 201.101 31 201.037 31C200.546 31 200.152 30.9893 199.853 30.968L198.125 30.936L196.397 30.968C196.098 30.9893 195.704 31 195.213 31C195.149 31 195.117 30.936 195.117 30.808C195.117 30.68 195.149 30.616 195.213 30.616C195.789 30.616 196.216 30.5627 196.493 30.456C196.77 30.328 196.962 30.1147 197.069 29.816C197.176 29.496 197.229 29.0267 197.229 28.408V11.864C197.229 11.096 197.154 10.5413 197.005 10.2C196.856 9.85867 196.589 9.688 196.205 9.688C195.885 9.688 195.394 9.83733 194.733 10.136H194.669C194.605 10.136 194.552 10.0827 194.509 9.976C194.466 9.86933 194.488 9.80533 194.573 9.784L198.637 7.8H198.733C198.818 7.8 198.882 7.832 198.925 7.896C198.989 7.93867 199.021 7.992 199.021 8.056V21.048C199.832 20.1093 200.632 19.4267 201.421 19C202.232 18.552 203.074 18.328 203.949 18.328C205.122 18.328 206.029 18.6587 206.669 19.32C207.309 19.9813 207.629 20.9413 207.629 22.2V28.408C207.629 29.0267 207.682 29.496 207.789 29.816C207.896 30.1147 208.088 30.328 208.365 30.456C208.642 30.5627 209.069 30.616 209.645 30.616ZM224.142 18.648C224.206 18.648 224.238 18.712 224.238 18.84C224.238 18.968 224.206 19.032 224.142 19.032C223.608 19.032 223.15 19.224 222.766 19.608C222.382 19.992 222.019 20.6213 221.678 21.496L217.774 31.896C216.984 33.9653 216.238 35.576 215.534 36.728C214.851 37.9013 214.136 38.7333 213.39 39.224C212.664 39.736 211.822 39.992 210.862 39.992C210.392 39.992 210.008 39.8853 209.71 39.672C209.39 39.4587 209.23 39.1493 209.23 38.744C209.23 38.4453 209.326 38.2107 209.518 38.04C209.71 37.8693 209.944 37.784 210.222 37.784C210.499 37.784 210.734 37.816 210.926 37.88C211.118 37.944 211.32 38.0507 211.534 38.2C211.576 38.2213 211.694 38.2853 211.886 38.392C212.099 38.4987 212.355 38.552 212.654 38.552C213.166 38.552 213.646 38.328 214.094 37.88C214.563 37.432 215.054 36.6747 215.566 35.608C216.099 34.5627 216.718 33.112 217.422 31.256L212.558 21.304C212.067 20.3653 211.694 19.7573 211.438 19.48C211.182 19.1813 210.851 19.032 210.446 19.032C210.403 19.032 210.382 18.968 210.382 18.84C210.382 18.712 210.403 18.648 210.446 18.648L211.534 18.68C211.79 18.7013 212.142 18.712 212.59 18.712L214.638 18.68C214.936 18.6587 215.352 18.648 215.886 18.648C215.928 18.648 215.95 18.712 215.95 18.84C215.95 18.968 215.928 19.032 215.886 19.032C214.648 19.032 214.03 19.2773 214.03 19.768C214.03 19.896 214.083 20.0667 214.19 20.28L218.414 28.952L220.974 21.592C221.144 21.08 221.23 20.6747 221.23 20.376C221.23 19.8853 221.038 19.544 220.654 19.352C220.27 19.1387 219.64 19.032 218.766 19.032C218.723 19.032 218.702 18.968 218.702 18.84C218.702 18.712 218.723 18.648 218.766 18.648C219.342 18.648 219.779 18.6587 220.078 18.68L221.998 18.712L223.15 18.68C223.363 18.6587 223.694 18.648 224.142 18.648Z" fill="#02060E"/>
</svg>
